<svg xmlns="http://www.w3.org/2000/svg" width="80" height="80" viewBox="0 0 80 80">
    <g fill="none" fill-rule="evenodd">
        <rect width="80" height="80" fill="#E61237" rx="40"/>
        <g fill="#FFF" fill-rule="nonzero">
            <path d="M58.092 30.108H45.458v-9.283a.822.822 0 0 0-.825-.825H21.892a.822.822 0 0 0-.825.825v39.167c0 .458.366.825.825.825h36.2a.822.822 0 0 0 .825-.825V30.933a.822.822 0 0 0-.825-.825zm-14.284.825v28.242H22.717V21.65h21.091v9.283zm13.459 28.234H45.458V31.75h11.809v27.417z"/>
            <path d="M48.675 35.942h5.375a.822.822 0 0 0 .825-.825.822.822 0 0 0-.825-.825h-5.375a.822.822 0 0 0-.825.825c0 .45.367.825.825.825zM48.675 40.083h5.375a.822.822 0 0 0 .825-.825.822.822 0 0 0-.825-.825h-5.375a.822.822 0 0 0-.825.825c0 .459.367.825.825.825zM48.675 44.217h5.375a.822.822 0 0 0 .825-.825.822.822 0 0 0-.825-.825h-5.375a.822.822 0 0 0-.825.825c0 .458.367.825.825.825zM48.675 48.358h5.375a.822.822 0 0 0 .825-.825.822.822 0 0 0-.825-.825h-5.375a.822.822 0 0 0-.825.825c0 .459.367.825.825.825zM48.675 52.492h5.375a.822.822 0 0 0 .825-.825.822.822 0 0 0-.825-.825h-5.375a.822.822 0 0 0-.825.825c0 .45.367.825.825.825zM48.675 56.633h5.375a.822.822 0 0 0 .825-.825.822.822 0 0 0-.825-.825h-5.375a.822.822 0 0 0-.825.825c0 .459.367.825.825.825zM26.542 28.083a.822.822 0 0 0 .825-.825v-1.825a.822.822 0 0 0-.825-.825.822.822 0 0 0-.825.825v1.825c0 .459.366.825.825.825zM31.025 28.083a.822.822 0 0 0 .825-.825v-1.825a.822.822 0 0 0-.825-.825.822.822 0 0 0-.825.825v1.825c0 .459.367.825.825.825zM35.5 28.083a.822.822 0 0 0 .825-.825v-1.825a.822.822 0 0 0-.825-.825.822.822 0 0 0-.825.825v1.825c0 .459.375.825.825.825zM39.983 28.083a.822.822 0 0 0 .825-.825v-1.825a.822.822 0 0 0-.825-.825.822.822 0 0 0-.825.825v1.825c0 .459.367.825.825.825zM26.542 33.733a.822.822 0 0 0 .825-.825v-1.833a.822.822 0 0 0-.825-.825.822.822 0 0 0-.825.825v1.833c0 .45.366.825.825.825zM31.025 33.733a.822.822 0 0 0 .825-.825v-1.833a.822.822 0 0 0-.825-.825.822.822 0 0 0-.825.825v1.833c0 .45.367.825.825.825zM35.5 33.733a.822.822 0 0 0 .825-.825v-1.833a.822.822 0 0 0-.825-.825.822.822 0 0 0-.825.825v1.833c0 .45.375.825.825.825zM39.983 33.733a.822.822 0 0 0 .825-.825v-1.833a.822.822 0 0 0-.825-.825.822.822 0 0 0-.825.825v1.833c0 .45.367.825.825.825zM26.542 39.375a.822.822 0 0 0 .825-.825v-1.825a.822.822 0 0 0-.825-.825.822.822 0 0 0-.825.825v1.825c0 .458.366.825.825.825zM31.025 39.375a.822.822 0 0 0 .825-.825v-1.825a.822.822 0 0 0-.825-.825.822.822 0 0 0-.825.825v1.825c0 .458.367.825.825.825zM35.5 39.375a.822.822 0 0 0 .825-.825v-1.825a.822.822 0 0 0-.825-.825.822.822 0 0 0-.825.825v1.825c0 .458.375.825.825.825zM39.983 39.375a.822.822 0 0 0 .825-.825v-1.825a.822.822 0 0 0-.825-.825.822.822 0 0 0-.825.825v1.825c0 .458.367.825.825.825zM26.542 45.025a.822.822 0 0 0 .825-.825v-1.825a.822.822 0 0 0-.825-.825.822.822 0 0 0-.825.825V44.2c0 .45.366.825.825.825zM31.025 45.025a.822.822 0 0 0 .825-.825v-1.825a.822.822 0 0 0-.825-.825.822.822 0 0 0-.825.825V44.2c0 .45.367.825.825.825zM35.5 45.025a.822.822 0 0 0 .825-.825v-1.825a.822.822 0 0 0-.825-.825.822.822 0 0 0-.825.825V44.2c0 .45.375.825.825.825zM39.983 45.025a.822.822 0 0 0 .825-.825v-1.825a.822.822 0 0 0-.825-.825.822.822 0 0 0-.825.825V44.2c0 .45.367.825.825.825zM26.542 50.667a.822.822 0 0 0 .825-.825v-1.825a.822.822 0 0 0-.825-.825.822.822 0 0 0-.825.825v1.825c0 .458.366.825.825.825zM31.025 50.667a.822.822 0 0 0 .825-.825v-1.825a.822.822 0 0 0-.825-.825.822.822 0 0 0-.825.825v1.825c0 .458.367.825.825.825zM35.5 50.667a.822.822 0 0 0 .825-.825v-1.825a.822.822 0 0 0-.825-.825.822.822 0 0 0-.825.825v1.825c0 .458.375.825.825.825zM39.983 50.667a.822.822 0 0 0 .825-.825v-1.825a.822.822 0 0 0-.825-.825.822.822 0 0 0-.825.825v1.825c0 .458.367.825.825.825zM26.542 56.317a.822.822 0 0 0 .825-.825v-1.834a.822.822 0 0 0-.825-.825.822.822 0 0 0-.825.825v1.834c0 .45.366.825.825.825zM31.025 56.317a.822.822 0 0 0 .825-.825v-1.834a.822.822 0 0 0-.825-.825.822.822 0 0 0-.825.825v1.834c0 .45.367.825.825.825zM35.5 56.317a.822.822 0 0 0 .825-.825v-1.834a.822.822 0 0 0-.825-.825.822.822 0 0 0-.825.825v1.834c0 .45.375.825.825.825zM39.983 56.317a.822.822 0 0 0 .825-.825v-1.834a.822.822 0 0 0-.825-.825.822.822 0 0 0-.825.825v1.834c0 .45.367.825.825.825z"/>
        </g>
    </g>
</svg>
