<svg xmlns="http://www.w3.org/2000/svg" width="80" height="80" viewBox="0 0 80 80">
    <g fill="none" fill-rule="evenodd">
        <rect width="80" height="80" fill="#E61237" rx="40"/>
        <g fill="#FFF" fill-rule="nonzero">
            <path d="M38.03 44.435a.82.82 0 0 0 .583.242.82.82 0 0 0 .583-.242l6.851-6.85a.82.82 0 0 0 0-1.167.82.82 0 0 0-1.167 0l-6.267 6.267-2.65-2.65a.82.82 0 0 0-1.167 0 .82.82 0 0 0 0 1.167l3.234 3.233z"/>
            <path d="M21.237 57.528a1.572 1.572 0 0 0-.867 1.659 1.583 1.583 0 0 0 1.325 1.333c.508.083 1.058.117 1.617.117 1.517 0 4.409-.309 7.242-2.326a20.456 20.456 0 0 0 9.868 2.534 20.286 20.286 0 0 0 14.442-5.984c7.968-7.967 7.968-20.918 0-28.886A20.312 20.312 0 0 0 40.422 20a20.286 20.286 0 0 0-14.443 5.984c-7.493 7.492-7.984 19.501-1.209 27.56-.933 1.95-2.125 3.292-3.533 3.984zm5.908-30.377a18.66 18.66 0 0 1 13.277-5.5 18.64 18.64 0 0 1 13.276 5.5c7.317 7.317 7.317 19.226 0 26.552a18.66 18.66 0 0 1-13.276 5.5c-3.35 0-6.634-.892-9.51-2.583a.818.818 0 0 0-.925.058 10.982 10.982 0 0 1-6.683 2.309c-.4 0-.792-.025-1.167-.075 1.8-.942 3.258-2.684 4.35-5.176a.823.823 0 0 0-.142-.875c-6.55-7.409-6.2-18.702.8-25.71z"/>
        </g>
    </g>
</svg>
