<svg xmlns="http://www.w3.org/2000/svg" width="47" height="47" viewBox="0 0 47 47">
    <g fill="none" fill-rule="evenodd">
        <circle cx="23.5" cy="23.5" r="23.5" fill="#CECED0" fill-opacity=".187"/>
        <path fill="#FFF" d="M30.603 18.125c0 .322-.107.59-.321.804l-4.86 4.86 4.86 4.858c.143.143.244.31.303.5.06.19.06.387 0 .59-.06.202-.16.375-.303.518a1.09 1.09 0 0 1-.804.321 1.09 1.09 0 0 1-.804-.321l-4.859-4.86-4.859 4.86a1.09 1.09 0 0 1-.804.321 1.09 1.09 0 0 1-.804-.321 1.197 1.197 0 0 1-.303-.518.995.995 0 0 1 0-.59c.06-.19.16-.357.303-.5l4.86-4.859-4.86-4.859a1.09 1.09 0 0 1-.321-.804c0-.321.107-.59.321-.803a1.09 1.09 0 0 1 .804-.322c.322 0 .59.107.804.322l4.859 4.858 4.859-4.858a1.09 1.09 0 0 1 .804-.322c.321 0 .59.107.804.322.214.214.321.482.321.803z"/>
    </g>
</svg>
