<svg xmlns="http://www.w3.org/2000/svg" width="19" height="19" viewBox="0 0 19 19">
    <path fill="#050C26" fill-rule="evenodd" d="M18.591 1.538c0 .44-.146.806-.44 1.099l-6.64 6.64 6.64 6.641c.196.195.335.423.416.684.081.26.081.529 0 .805-.081.277-.22.513-.415.708a1.49 1.49 0 0 1-1.099.44 1.49 1.49 0 0 1-1.098-.44l-6.641-6.64-6.64 6.64a1.49 1.49 0 0 1-1.1.44 1.49 1.49 0 0 1-1.098-.44 1.636 1.636 0 0 1-.415-.708 1.36 1.36 0 0 1 0-.805c.081-.26.22-.489.415-.684l6.64-6.64-6.64-6.641a1.49 1.49 0 0 1-.44-1.099c0-.44.147-.806.44-1.099A1.49 1.49 0 0 1 1.575 0c.44 0 .805.146 1.098.44l6.641 6.64 6.64-6.64a1.49 1.49 0 0 1 1.1-.44c.439 0 .805.146 1.098.44.293.292.44.659.44 1.098z"/>
</svg>
