<svg xmlns="http://www.w3.org/2000/svg" width="20" height="20" viewBox="0 0 20 20">
    <path fill="#FFF" fill-rule="evenodd" d="M19.277 2.386c0 .44-.146.805-.44 1.098l-6.64 6.641 6.64 6.64c.196.196.335.424.416.684.081.26.081.53 0 .806-.081.277-.22.513-.415.708a1.49 1.49 0 0 1-1.099.44 1.49 1.49 0 0 1-1.098-.44L10 12.323l-6.64 6.64a1.49 1.49 0 0 1-1.1.44 1.49 1.49 0 0 1-1.098-.44 1.636 1.636 0 0 1-.415-.708 1.36 1.36 0 0 1 0-.806c.081-.26.22-.488.415-.683l6.64-6.641-6.64-6.64a1.49 1.49 0 0 1-.44-1.1c0-.439.147-.805.44-1.098a1.49 1.49 0 0 1 1.099-.44c.44 0 .805.147 1.098.44L10 7.927l6.64-6.64a1.49 1.49 0 0 1 1.1-.44c.439 0 .805.147 1.098.44.293.293.44.66.44 1.099z"/>
</svg>
