<svg xmlns="http://www.w3.org/2000/svg" width="93" height="93" viewBox="0 0 93 93">
    <g fill="none" fill-rule="evenodd">
        <path fill="#B1122C" d="M0 0h93v93H0z"/>
        <g fill="#FFF">
            <path d="M46 14c2.042 0 4.02.27 5.938.813a21.806 21.806 0 0 1 5.28 2.25 21.618 21.618 0 0 1 4.438 3.53 23.006 23.006 0 0 1 3.438 4.532c.937 1.625 1.666 3.406 2.187 5.344.521 1.937.781 3.927.781 5.968 0 1.417-.093 2.74-.28 3.97-.188 1.228-.49 2.343-.907 3.343-.417 1-.844 1.885-1.281 2.656-.438.771-.99 1.542-1.656 2.313a27.59 27.59 0 0 1-1.72 1.843c-.478.459-1.093 1.021-1.843 1.688a119.61 119.61 0 0 0-2.406 2.188c-.438.416-.875.99-1.313 1.718-.437.73-.656 1.469-.656 2.219v3.375a.48.48 0 0 1-.063.188V62H56v5.813c0 3.041-.917 5.5-2.75 7.374C51.417 77.064 49.02 78 46.062 78c-2 0-3.76-.427-5.28-1.281a8.885 8.885 0 0 1-3.532-3.594c-.833-1.542-1.25-3.312-1.25-5.313V62h.063a1.023 1.023 0 0 1-.063-.25v-3.375c0-.458-.156-.937-.469-1.438a7.367 7.367 0 0 0-1.031-1.312c-.375-.375-.98-.937-1.813-1.688a8.898 8.898 0 0 1-.562-.5 44.661 44.661 0 0 1-1.875-1.75 40.45 40.45 0 0 1-1.813-1.968 14.93 14.93 0 0 1-1.78-2.5 25.373 25.373 0 0 1-1.376-2.907c-.437-1.083-.77-2.291-1-3.624a25.085 25.085 0 0 1-.343-4.25c0-4.084.968-7.844 2.906-11.282 1.937-3.437 4.604-6.156 8-8.156 3.396-2 7.114-3 11.156-3zm-.063 60c1.917 0 3.407-.542 4.47-1.625C51.468 71.292 52 69.771 52 67.812v-2.75a14.85 14.85 0 0 1-2.688.688c-1 .167-2.104.25-3.312.25-2.292 0-4.292-.292-6-.875v2.688c0 1.916.52 3.427 1.563 4.53 1.041 1.105 2.5 1.657 4.374 1.657zM57.75 49.25a34.268 34.268 0 0 0 1.625-1.5 30.42 30.42 0 0 0 1.438-1.563c.541-.625.99-1.24 1.343-1.843.354-.604.688-1.302 1-2.094.313-.792.542-1.677.688-2.656.146-.98.218-2.031.218-3.157 0-3.333-.791-6.416-2.374-9.25-1.584-2.833-3.76-5.072-6.532-6.718C52.386 18.823 49.333 18 46 18c-5.042 0-9.312 1.792-12.813 5.375-3.5 3.583-5.25 7.937-5.25 13.063 0 1.208.084 2.343.25 3.406.167 1.062.428 2.031.782 2.906.354.875.718 1.656 1.093 2.344.376.687.865 1.375 1.47 2.062.603.688 1.124 1.26 1.562 1.719.437.458 1.01 1 1.718 1.625l.438.375c.583.542 1.02.937 1.313 1.188C38.853 54.228 40 56.332 40 58.374v2.563c.208.125.417.229.625.312.208.083.49.177.844.281.354.104.74.188 1.156.25.417.063.906.125 1.469.188.562.062 1.177.093 1.843.093 2.626 0 4.646-.395 6.063-1.187v-2.5c0-1 .135-1.917.406-2.75s.719-1.635 1.344-2.406c.625-.771 1.167-1.386 1.625-1.844.458-.458 1.125-1.062 2-1.813.167-.166.292-.27.375-.312z"/>
            <path d="M47.742 42.438H44.3l-.484-14.766h4.41l-.484 14.765zm-3.999 4.555c0-.322.054-.622.161-.9.108-.279.26-.518.454-.718.196-.2.433-.36.71-.477.28-.117.594-.175.946-.175.341 0 .652.058.93.175.278.118.515.276.71.477.196.2.347.439.454.717.108.279.162.579.162.901 0 .322-.054.62-.162.894-.107.273-.258.51-.454.71a2.05 2.05 0 0 1-.71.469 2.465 2.465 0 0 1-.93.168c-.352 0-.667-.056-.945-.168a2.05 2.05 0 0 1-.71-.469 2.109 2.109 0 0 1-.455-.71 2.423 2.423 0 0 1-.16-.894z"/>
        </g>
    </g>
</svg>
