<svg xmlns="http://www.w3.org/2000/svg" width="93" height="93" viewBox="0 0 93 93">
    <g fill="none" fill-rule="evenodd">
        <path fill="#00BD5F" d="M0 0h93v93H0z"/>
        <path fill="#FFF" d="M70.94 26.724c.221-.22.478-.404.772-.551 1.542-.955 2.974-.771 4.296.55.661.662.992 1.488.992 2.48 0 .99-.33 1.817-.992 2.478L40.864 67.046l-.44.44c-.661.735-1.488 1.102-2.479 1.102-.992 0-1.818-.367-2.479-1.102L17.95 50.08l-.44-.66a2.542 2.542 0 0 1-.33-.717 5.78 5.78 0 0 1-.166-.77 2.713 2.713 0 0 1 0-.772c.037-.257.092-.496.165-.716.073-.22.184-.46.33-.716.147-.257.294-.46.441-.606.735-.735 1.58-1.102 2.534-1.102.955 0 1.8.367 2.534 1.102L37.89 59.995l33.05-33.271z"/>
    </g>
</svg>
